REM GENRE "NS Black Metal"
REM DATE 2008
REM DISCID 4D0BAA06
REM COMMENT "ExactAudioCopy v1.0b3"
PERFORMER "Flame of War"
TITLE "Europa; Or, the Spirit Among the Ruins"
FILE "Flame of War - Europa; Or, the Spirit Among the Ruins.flac" WAVE
  TRACK 01 AUDIO
    TITLE "Heathen Mysticism pt I"
    PERFORMER "Flame of War"
    INDEX 01 00:00:00
  TRACK 02 AUDIO
    TITLE "Imperium"
    PERFORMER "Flame of War"
    INDEX 01 02:32:71
  TRACK 03 AUDIO
    TITLE "Spirit Among the Ruins"
    PERFORMER "Flame of War"
    INDEX 01 14:32:25
  TRACK 04 AUDIO
    TITLE "Ragnarok - Beholding the Inevitable"
    PERFORMER "Flame of War"
    INDEX 01 24:23:23
  TRACK 05 AUDIO
    TITLE "Long Live Death!"
    PERFORMER "Flame of War"
    INDEX 01 28:45:25
  TRACK 06 AUDIO
    TITLE "Heathen Mysticism pt II"
    PERFORMER "Flame of War"
    INDEX 01 37:41:16
